<svg id="Layer_1" enable-background="new 0 0 512 512" height="512" viewBox="0 0 512 512" width="512" xmlns="http://www.w3.org/2000/svg"><g><g><path d="m259 370c-2.931 0-5.863-.857-8.402-2.574l-244-164.978c-4.282-2.896-6.772-7.792-6.589-12.958.184-5.166 3.014-9.874 7.491-12.458l83.929-48.457c2.28-1.316 4.867-2.01 7.5-2.01h314.142c2.633 0 5.22.693 7.5 2.01l83.929 48.457c4.45 2.569 7.275 7.237 7.487 12.372.212 5.134-2.219 10.019-6.442 12.946l-238 164.978c-2.568 1.781-5.556 2.672-8.545 2.672z" fill="#fdbf00"/></g><path d="m511.987 189.403c-.212-5.134-3.037-9.802-7.487-12.372l-83.929-48.457c-2.28-1.316-4.867-2.01-7.5-2.01h-157.071v243.126c.99.202 1.995.31 3 .31 2.989 0 5.977-.892 8.545-2.672l238-164.978c4.224-2.927 6.654-7.813 6.442-12.947z" fill="#ff8856"/><g><path d="m252 372c-2.934 0 .132-.859-2.406-2.577l-159-107.584c-4.124-2.79-6.594-7.444-6.594-12.423v-204.416c0-24.813 20.187-45 45-45h339c5.165 0-45.499 81.439-45.499 81.439v172.652c0 5.01-2.501 9.688-6.666 12.472l-155.501 102.909c-2.523 1.685-5.429 2.528-8.334 2.528zm155.501-117.909h.01z" fill="#fff4f4"/></g><g><g><path d="m482 512h-452c-16.569 0-30-13.431-30-30v-291.546c0-4.807 2.084-9.474 5.918-12.373 5.353-4.048 12.569-4.029 17.846-.232l232.363 167.271 232.278-167.844c5.297-3.703 12.468-3.646 17.762.418 3.783 2.903 5.833 7.537 5.833 12.306v292c0 16.569-13.432 30-30 30z" fill="#ffde3b"/></g></g><path d="m468 0h-212v371.449c1.515-.419 2.981-1.073 4.334-1.977l155.501-102.909c4.165-2.783 6.666-7.462 6.666-12.472v-172.651s50.664-81.44 45.499-81.44z" fill="#f6efea"/><g><path d="m497 92h-75v-46.202c0-25.18 20.606-46.222 45.782-45.791 24.454.419 44.218 20.441 44.218 44.993v32c0 8.284-6.716 15-15 15z" fill="#eee1dc"/></g><g><g><path d="m258 236.989c-11.94 0-35.419-16.147-52.441-32.099-14.214-13.32-38.059-39.693-38.059-66.669 0-28.519 23.202-51.721 51.721-51.721 12.445 0 24.472 4.485 33.866 12.63 2.847 2.469 6.979 2.469 9.826 0 9.394-8.145 21.421-12.63 33.866-12.63 28.519 0 51.721 23.202 51.721 51.721 0 25.337-23.81 51.907-38.002 65.49-17.279 16.537-40.86 33.278-52.498 33.278z" fill="#ff415b"/></g></g><path d="m296.779 86.5c-12.445 0-24.472 4.485-33.866 12.63-1.972 1.71-4.561 2.234-6.913 1.574v136.142c.695.088 1.367.143 2 .143 11.638 0 35.219-16.741 52.498-33.278 14.192-13.583 38.002-40.153 38.002-65.49 0-28.519-23.202-51.721-51.721-51.721z" fill="#e50058"/><path d="m506.167 177.693c-5.294-4.064-12.465-4.121-17.762-.418l-232.278 167.845-.127-.091v166.971h226c16.569 0 30-13.431 30-30v-292c0-4.769-2.05-9.403-5.833-12.307z" fill="#fcba00"/></g></svg>