<?xml version="1.0" encoding="iso-8859-1"?>
<!-- Generator: Adobe Illustrator 19.0.0, SVG Export Plug-In . SVG Version: 6.00 Build 0)  -->
<svg version="1.1" id="Layer_1" xmlns="http://www.w3.org/2000/svg" xmlns:xlink="http://www.w3.org/1999/xlink" x="0px" y="0px"
	 viewBox="0 0 491.52 491.52" style="enable-background:new 0 0 491.52 491.52;" xml:space="preserve">
<ellipse style="fill:#27A2DB;" cx="245.76" cy="245.018" rx="195.635" ry="196.198"/>
<g>
	<path style="fill:#FCD462;" d="M336.109,360.691c1.802-2.436,3.113-5.506,5.846-6.806c1.071,3.799,0.672,7.995-1.094,11.524
		c-1.32,2.636-3.335,4.851-4.917,7.337c-2.562,4.026-3.986,8.76-6.986,12.47c-2.719,3.362-6.674,5.695-10.925,6.443
		c-0.389,0.068-0.821,0.116-1.151-0.103c-4.03-2.67,4.101-13.293,5.283-16.2C325.403,367.393,331.281,367.218,336.109,360.691z"/>
	<path style="fill:#FCD462;" d="M80.441,206.04c1.802-2.436,3.113-5.506,5.846-6.806c1.071,3.8,0.672,7.995-1.094,11.524
		c-1.32,2.636-3.335,4.851-4.917,7.337c-2.562,4.026-3.986,8.76-6.986,12.47c-2.719,3.362-6.674,5.695-10.925,6.443
		c-0.389,0.068-0.821,0.116-1.151-0.103c-4.03-2.67,4.101-13.293,5.283-16.2C69.734,212.742,75.613,212.566,80.441,206.04z"/>
	<path style="fill:#FCD462;" d="M131.075,97.896c5.34-2.764,11.388-3.73,17.185-5.319c5.796-1.588,11.712-4.046,15.337-8.853
		c2.756-3.654,4.223-8.648,8.304-10.707c5.929-2.991,13.272,2.199,19.578,0.126c1.198,3.109-2.075,6.002-4.94,7.691
		c-15.708,9.258-32.306,16.995-49.489,23.069c-5.488,1.94-10.621,4.156-15.733,6.864
		C120.991,105.243,126.492,100.268,131.075,97.896z"/>
	<path style="fill:#FCD462;" d="M305.419,58.134c-4.445,6.058-11.883,9.925-19.409,9.612c-2.557-0.106-5.212-0.63-7.61,0.272
		c-4.515,1.7-5.858,7.364-9.03,11.006c-1.894,2.174-4.464,3.62-6.982,5.023c-9.431,5.259-18.865,10.518-28.299,15.777
		c0.105-2.086,0.207-4.172,0.312-6.258c-11.491-2.506-25.456-4.266-33.225,4.587c-2.458,2.801-3.923,6.361-6.352,9.187
		c-2.426,2.826-6.508,4.867-9.848,3.228c-2.592,1.007-2,5.151,0.162,6.904c2.165,1.753,5.113,2.191,7.457,3.691
		c2.343,1.5,3.849,5.163,1.732,6.971c-0.946-2.682-5.343-1.239-6.422,1.391c-1.083,2.63-0.659,5.782-2.13,8.214
		c-0.955,1.578-2.573,2.614-4.133,3.593c-9.179,5.761-18.967,11.711-29.792,11.87c0.672,3.743,1.344,7.618,0.452,11.316
		c-0.895,3.697-3.792,7.191-7.571,7.511c-4.423,0.375-9.784-3.233-12.739,0.089c-1.191,1.34-1.305,3.297-1.356,5.091
		c-0.185,6.211-0.369,12.422-0.551,18.633c5.855,3.868,14.022,1.328,19.263-3.347c5.238-4.675,8.581-11.076,13.045-16.501
		c4.464-5.425,10.934-10.144,17.894-9.297c9.399,1.145,14.91,11.497,23.682,15.081c-0.595-8.206-4.025-16.179-9.568-22.243
		c13.799,4.332,25.411,15.173,30.706,28.668c3.681-0.554,4.123-5.569,4.387-9.292c0.264-3.723,3.83-8.38,6.718-6.025
		c1.2,0.98,1.391,2.704,1.681,4.23c1.038,5.481,5.126,10.749,10.647,11.436c4.633,0.576,8.979-2.036,13.462-3.336
		c4.483-1.3,10.561-0.451,11.959,4.013c1.509,4.829-3.684,9.003-8.345,10.945c-12.994,5.419-27.755,6.476-41.388,2.965
		c-0.22,5.128-6.365,8.081-11.446,7.474c-5.085-0.608-9.584-3.488-14.465-5.038c-2.98-0.947-6.218-1.448-8.695-3.36
		c-2.477-1.911-3.709-5.958-1.484-8.159c-8.683-2.965-18.308-4.45-26.962-1.411c-9.144,3.21-18.301,11.317-27.146,7.351
		c-1.923,12.587-13.385,21.032-21.24,31.037c-15.547,19.808-16.783,49.7-2.923,70.73c5.83,8.845,15.06,16.513,25.631,16.384
		c4.789-0.059,9.393-1.704,14.013-2.966c8.915-2.436,18.209-3.485,27.439-3.099c5.728,0.24,12.357,1.657,14.85,6.831
		c-0.828,7.245-0.519,15.224,3.674,21.18c4.693,6.665,14.185,8.784,18.429,15.745c3.458,5.669,2.461,12.87,3.471,19.437
		c1.133,7.382,4.881,14.098,9.116,20.244c5.693,8.266,12.593,16.005,21.466,20.661c8.877,4.656,20.018,5.811,28.863,1.096
		c16.926-9.025,18.967-34.302,35.141-44.628c1.468-0.938,3.108-1.811,3.929-3.351c0.659-1.24,0.672-2.719,0.557-4.12
		c-0.745-8.949-6.03-17.915-3.127-26.41c1.544-4.517,5.158-7.942,8.431-11.41c14.754-15.637,24.641-35.829,27.958-57.098
		c-7.361-2.403-14.156,7.688-21.73,6.088c-2.012-0.425-3.754-1.649-5.422-2.856c-20.772-15.033-41.261-33.895-46.588-59.025
		c9.495,6.591,16.795,15.948,22.603,25.957c3.439,5.926,6.476,12.218,11.249,17.127c4.773,4.908,11.838,8.267,18.448,6.516
		c3.783-1.003,6.966-3.531,9.857-6.175c12.472-11.406,21.769-26.265,26.586-42.488c-16.334,3.187-34.154-2.977-45.059-15.582
		c18.575-1.733,37.341,11.875,54.971,5.763c2.544-0.882,5.39-2.15,7.775-0.899c3.515,1.845,4.305,8.353,8.234,7.798
		c2.207-0.311,4.101-3.064,6.091-2.064c0.758,0.38,1.169,1.202,1.528,1.971c6.559,13.983,13.115,27.965,19.674,41.948
		c9.975-19.249-1.28-44.05,7.352-63.942c3.184,4.812,7.138,9.086,11.605,12.728C421.993,134.489,371.318,79.276,305.419,58.134z
		 M218.851,122.684c-0.751,0.307-1.621,0.251-2.356,0.598c-2.165,1.022-1.681,4.477-3.423,6.126
		c-2.171,2.057-5.973-0.032-8.644,1.308c-1.063,0.534-1.84,1.575-2.967,1.956c-0.71,0.241-1.481,0.19-2.229,0.137l-0.793-1.96
		c3.273-0.571,6.199-2.853,7.559-5.892c0.669-1.498,1.025-3.227,2.238-4.331c1.012-0.925,2.522-1.289,3.289-2.429
		c0.86-1.275,0.455-3.008-0.181-4.408c-0.637-1.401-1.493-2.793-1.458-4.331c0.057-2.631,2.585-4.424,4.843-5.769
		c1.57-0.935,3.136-1.87,4.706-2.805c0.462,1.064-0.159,2.311-1.006,3.101c-0.847,0.79-1.917,1.316-2.729,2.141
		c-1.688,1.708-1.974,4.339-1.936,6.743c0.01,0.597,0.041,1.222,0.35,1.734c0.519,0.869,1.662,1.135,2.671,1.092
		c1.009-0.043,2.019-0.309,3.018-0.161c0.239,0.035,0.484,0.099,0.665,0.259c0.293,0.257,0.347,0.687,0.379,1.077
		C221.035,119.064,220.885,121.853,218.851,122.684z M280.085,164.482c-0.465,1.5-2.315,1.972-3.868,2.154
		c-5.228,0.612-10.612,0.776-15.853,0.224c-1.608-0.169-3.33-0.856-4.945-0.719c-2.286,0.193-4.352,1.901-6.473,2.658
		c-2.452,0.873-5.737,0.649-6.944-1.66c-1.468-2.806,1.223-6.017,1.305-9.185c0.029-1.097-0.264-2.186-0.194-3.281
		c0.07-1.094,0.665-2.289,1.732-2.523c1.197-0.261,2.241,0.752,3.165,1.558c2.42,2.11,5.648,3.265,8.851,3.168
		c1.143-1.774,1.019-4.056,1.602-6.086c0.579-2.029,2.652-4.055,4.559-3.163c1.143,0.534,1.652,1.891,1.799,3.146
		c0.146,1.255,0.051,2.559,0.478,3.749c0.879,2.452,3.63,3.637,6.167,4.202c2.534,0.564,5.289,0.853,7.285,2.517
		C279.703,162.034,280.448,163.297,280.085,164.482z M319.021,171.123c-0.958,0.93-2.48,0.835-3.805,0.68
		c-1.089-0.128-2.178-0.255-3.27-0.384c-1.761-0.206-3.747-0.545-4.728-2.025c-0.49-0.737-0.637-1.641-0.837-2.504
		c-0.99-4.286-3.569-8.184-7.122-10.766c-2.936-2.134-6.425-3.349-9.542-5.208c-0.347-0.208-0.716-0.453-0.853-0.836
		c-0.169-0.467,0.06-0.975,0.283-1.418c1.054-2.102,2.136-4.242,3.789-5.916c1.525-1.548,4.021-2.987,6.253-2.43
		c0.105,4.444-2.375,7.45,1.079,11.486c1.652,1.932,3.84,2.367,6.266,2.509c0.462,0.027,6.938,0.702,6.686,1.024
		c-0.786,1.005-1.573,2.009-2.359,3.014c-0.274,0.352-0.564,0.744-0.554,1.192c0.013,0.412,0.277,0.769,0.541,1.084
		c1.13,1.349,2.48,2.512,3.98,3.431c1.366,0.836,2.888,1.5,3.935,2.713C319.808,167.984,320.174,170.009,319.021,171.123z"/>
</g>
<g>
	<path style="fill:#3A556A;" d="M245.83,395.292c-5.097,3.767-10.195,7.533-15.292,11.12c-25.841-19.819-51.95-42.599-77.614-68.337
		c-41.044-41.163-74.931-83.672-100.327-124.208C-0.696,128.85-16.344,52.89,18.886,17.466
		c39.343-39.37,122.592-2.869,186.706,35.514c-8.228,1.704-16.275,4.036-24.142,6.726C108.304,18.363,54.116,7.511,31.583,30.201
		C4.849,56.926,17.725,118.178,58.408,188.398c25.664,44.213,62.326,92.013,107.214,137.033
		C191.821,351.707,218.915,375.203,245.83,395.292z"/>
	<path style="fill:#3A556A;" d="M472.595,472.508c-12.788,12.914-30.938,19.012-53.026,19.012
		c-38.54,0-88.794-18.744-142.711-52.822c-10.284-6.457-20.656-13.362-31.117-20.896c5.095-3.677,10.193-7.533,15.29-11.479
		c13.95,9.865,27.72,18.743,41.133,26.545c70.102,40.895,131.176,53.719,157.822,26.994c22.8-22.869,11.893-79.009-28.974-151.92
		c2.685-7.892,4.921-16.053,6.619-24.393C491.64,373.859,504.066,441.03,472.595,472.508z"/>
</g>
<path style="fill:#64798A;" d="M438.885,213.867c-25.306,40.536-59.196,83.045-100.329,124.208
	c-25.572,25.738-51.684,48.518-77.525,68.248c-5.097,3.946-10.195,7.802-15.29,11.479c-10.374,7.533-20.746,14.439-31.03,20.896
	C160.794,472.776,110.45,491.52,71.913,491.52c-21.999,0-40.151-6.098-53.026-19.012C-12.768,440.76-0.069,371.078,53.492,281.038
	c1.609,8.52,3.665,16.86,6.348,24.932C19.513,378.611,8.514,436.814,31.583,459.862c20.032,20.088,62.237,18.116,115.798-5.291
	c13.771-6.009,27.897-13.273,42.116-21.613c13.592-7.892,27.273-16.77,41.041-26.546c5.097-3.587,10.195-7.353,15.292-11.12
	c27.002-20.357,54.098-43.764,80.118-69.861c44.174-44.302,81.103-91.565,107.212-136.853c8.313-14.259,15.561-28.429,21.551-42.24
	c23.337-53.719,25.306-96.048,5.274-116.136c-23.429-23.496-83.428-12.466-155.41,27.621c-8.226-2.601-16.631-4.573-25.214-6.098
	c88.97-53.629,161.129-66.453,193.233-34.258C507.913,52.89,492.177,128.85,438.885,213.867z"/>
<g>
</g>
<g>
</g>
<g>
</g>
<g>
</g>
<g>
</g>
<g>
</g>
<g>
</g>
<g>
</g>
<g>
</g>
<g>
</g>
<g>
</g>
<g>
</g>
<g>
</g>
<g>
</g>
<g>
</g>
</svg>
