<svg id="filled_outline" height="512" viewBox="0 0 512 512" width="512" xmlns="http://www.w3.org/2000/svg" data-name="filled outline"><path d="m40 416h264v72h-264z" fill="#eda600"/><path d="m216 256 60.72551 36.78741a40 40 0 0 1 19.27449 34.21189v49.0007a80 80 0 0 1 -80 80h-112a80 80 0 0 1 -80-80v-49.0007a40 40 0 0 1 19.27449-34.21189l60.72551-36.78741z" fill="#f6bb00"/><path d="m136 280v24l8 24-8 80h48l-8-80 8-24v-24z" fill="#e33d3d"/><path d="m488 472a16 16 0 0 1 -16 16h-176a16 16 0 0 1 -16-16v-201.37258a16 16 0 0 1 4.68629-11.31371l46.62742-46.62742a16 16 0 0 1 11.31371-4.68629h129.37258a16 16 0 0 1 16 16z" fill="#7e57df"/><path d="m368 312-16 12a40 40 0 0 0 -16 32v20h96v-20a40 40 0 0 0 -16-32l-16-12z" fill="#f6bb00"/><path d="m307.31371 172.68629-35.31371 35.31371v-168a16 16 0 0 1 16-16h160a16 16 0 0 1 16 16v112a16 16 0 0 1 -16 16h-129.37258a16 16 0 0 0 -11.31371 4.68629z" fill="#548aff"/><path d="m88 136v80.00032a71.99976 71.99976 0 0 0 71.99977 71.99977h.00014a71.99977 71.99977 0 0 0 71.99977-72.00009l-.00036-80-23.99932-32h-88z" fill="#f5c99d"/><path d="m232 144h-68a36 36 0 0 1 -36-36v-4a24 24 0 0 1 24-24h24a56 56 0 0 1 56 56z" fill="#b1792c"/><path d="m88 144v-32a24 24 0 0 1 24-24 16 16 0 0 1 16 16v9.37a30.63 30.63 0 0 1 -30.63 30.63z" fill="#956625"/><path d="m360 272v24a24 24 0 0 0 24 24 24 24 0 0 0 24-24v-24z" fill="#f5c99d"/><path d="m408 272h-48v-13.57781a18.42218 18.42218 0 0 1 18.42219-18.42219 18.42223 18.42223 0 0 1 10.21879 3.094l19.35902 12.906z" fill="#b1792c"/><path d="m168 416 43.80846-21.90423a19.85142 19.85142 0 0 1 8.87783-2.09577 11.31369 11.31369 0 0 1 11.31371 11.3137 11.31372 11.31372 0 0 1 -3.31371 8l-12.68629 12.6863h54.70179a9.29821 9.29821 0 0 1 9.29821 9.29821 9.29822 9.29822 0 0 1 -6.35786 8.82106l-32.40514 10.80173a60 60 0 0 1 -18.97366 3.079h-54.26334z" fill="#f5c99d"/><path d="m472 200h-129.373a23.84338 23.84338 0 0 0 -16.9707 7.0293l-46.627 46.62695a23.84338 23.84338 0 0 0 -7.0293 16.97075v9.94336l-42.19287-25.56006a79.48418 79.48418 0 0 0 10.19287-39.0103v-80a64.07207 64.07207 0 0 0 -64-64h-24a31.9704 31.9704 0 0 0 -25.59546 12.81689 23.87319 23.87319 0 0 0 -14.40454-4.81689 32.03667 32.03667 0 0 0 -32 32v104a79.48418 79.48418 0 0 0 10.19287 39.01025l-51.064 30.93409a48.2707 48.2707 0 0 0 -23.12887 41.05466v49.001a87.50855 87.50855 0 0 0 16 50.5376v61.4624a8.00039 8.00039 0 0 0 8 8h432a24.0275 24.0275 0 0 0 24-24v-248a24.0275 24.0275 0 0 0 -24-24zm-312 96a80.05556 80.05556 0 0 0 16-1.60986v8.312l-5.76562 17.29786h-20.46876l-5.76562-17.29785v-8.312a80.05556 80.05556 0 0 0 16 1.60985zm-8.7605 40h16.814l7.387 67.33545-8.563 4.28149-22.35254-4.47046zm24.7605 84.94434 39.38672-19.69334a11.9122 11.9122 0 0 1 5.2998-1.251 3.31318 3.31318 0 0 1 2.34278 5.65625l-12.68653 12.68652a8.00066 8.00066 0 0 0 5.65723 13.65723h54.70215a1.29792 1.29792 0 0 1 .41015 2.5293l-32.4043 10.80175a51.89617 51.89617 0 0 1 -16.44433 2.66895h-46.26367zm96-121.66675v116.72241h-36.749a19.31522 19.31522 0 0 0 -14.56446-32 27.99236 27.99236 0 0 0 -12.45605 2.94043l-17.53125 8.76562-7.14185-65.09936c.00928-.02661.02368-.04981.03247-.07642l8-24a8.0151 8.0151 0 0 0 .41014-2.53027v-14.69971a80.38312 80.38312 0 0 0 28.59863-21.16064zm-48-83.27759a64 64 0 0 1 -128 0v-64h1.37012a38.61872 38.61872 0 0 0 31.95971-16.95679 43.936 43.936 0 0 0 34.67017 16.95679h59.999zm-72-128h24a48.05375 48.05375 0 0 1 48 48h-60a28.03146 28.03146 0 0 1 -28-28v-4a16.01833 16.01833 0 0 1 16-16zm-40 8a8.00917 8.00917 0 0 1 8 8v9.37012a22.65506 22.65506 0 0 1 -22.62988 22.62988h-1.37012v-24a16.01833 16.01833 0 0 1 16-16zm-80 230.999a32.17815 32.17815 0 0 1 15.41992-27.36914l51.98145-31.49a80.38534 80.38534 0 0 0 28.59863 21.16043v14.69971a8.0151 8.0151 0 0 0 .41016 2.53027l7.45947 22.37842-7.1084 71.08423a40.90253 40.90253 0 0 1 -32.76123-39.99292h-16a56.94556 56.94556 0 0 0 45.6543 55.68945l34.3457 6.86914v25.44141h-56a72.08124 72.08124 0 0 1 -72-72zm16 116.8335a87.59685 87.59685 0 0 0 56 20.1675h118.26367a67.89316 67.89316 0 0 0 21.50391-3.48926l28.23242-9.41089v20.90015a23.88238 23.88238 0 0 0 1.37622 8h-225.37622zm432 28.1675a8.00917 8.00917 0 0 1 -8 8h-176a8.00917 8.00917 0 0 1 -8-8v-201.373a7.94368 7.94368 0 0 1 2.34375-5.65625l46.627-46.627a7.94368 7.94368 0 0 1 5.65625-2.34375h129.373a8.00917 8.00917 0 0 1 8 8z"/><path d="m420.7998 317.59961-8.61523-6.46143a31.79981 31.79981 0 0 0 3.81543-15.13818v-40a7.99943 7.99943 0 0 0 -3.5625-6.65625l-19.3584-12.90527a26.42157 26.42157 0 0 0 -41.0791 21.9834v37.57812a31.79981 31.79981 0 0 0 3.81543 15.13818l-8.61523 6.46143a48.22961 48.22961 0 0 0 -19.2002 38.40039v20a8.00039 8.00039 0 0 0 8 8h96a8.00039 8.00039 0 0 0 8-8v-20a48.22961 48.22961 0 0 0 -19.2002-38.40039zm-36.7998-5.59961a16.01833 16.01833 0 0 1 -16-16v-16h32v16a16.01833 16.01833 0 0 1 -16 16zm-16-53.57812a10.42245 10.42245 0 0 1 16.20312-8.67188l15.79688 10.53125v3.71875h-32zm-24 97.57812a32.15109 32.15109 0 0 1 12.7998-25.59961l9.95508-7.46631a31.82917 31.82917 0 0 0 9.24512 4.05322v41.0127h-32zm80 12h-32v-41.0127a31.82917 31.82917 0 0 0 9.24512-4.05322l9.95508 7.46631a32.15109 32.15109 0 0 1 12.7998 25.59961z"/><path d="m368 408h72v16h-72z"/><path d="m384 440h24v16h-24z"/><path d="m424 440h16v16h-16z"/><path d="m328 440h40v16h-40z"/><path d="m271.99805 216a8.00136 8.00136 0 0 0 5.65918-2.34277l35.31347-35.31348a7.94368 7.94368 0 0 1 5.6563-2.34375h129.373a24.0275 24.0275 0 0 0 24-24v-112a24.0275 24.0275 0 0 0 -24-24h-160a24.0275 24.0275 0 0 0 -24 24v168a8.00119 8.00119 0 0 0 7.998 8zm8.00195-176a8.00917 8.00917 0 0 1 8-8h160a8.00917 8.00917 0 0 1 8 8v112a8.00917 8.00917 0 0 1 -8 8h-129.373a23.84338 23.84338 0 0 0 -16.9707 7.0293l-21.6563 21.65722z"/><path d="m352 56h16v16h-16z"/><path d="m384 56h48v16h-48z"/><path d="m304 88h24v16h-24z"/><path d="m408 88h24v16h-24z"/><path d="m344 88h48v16h-48z"/><path d="m304 120h72v16h-72z"/><path d="m392 120h40v16h-40z"/><path d="m112 168h32v16h-32z"/><path d="m160 232a8.00917 8.00917 0 0 1 -8 8h-8v16h8a24.0275 24.0275 0 0 0 24-24v-16h-16z"/><circle cx="128" cy="200" r="8"/><path d="m176 168h32v16h-32z"/><circle cx="192" cy="200" r="8"/></svg>